<svg width="22" height="22" fill="none" xmlns="http://www.w3.org/2000/svg"><path d="M10.428 0C7.285 0 4.716 2.57 4.716 5.712c0 3.143 2.57 5.712 5.712 5.712 3.143 0 5.712-2.57 5.712-5.712C16.14 2.569 13.571 0 10.428 0zm9.803 15.989a5.326 5.326 0 00-.574-1.048c-1.147-1.696-2.918-2.819-4.914-3.093-.249-.025-.523.025-.723.175a6.01 6.01 0 01-3.592 1.172 6.01 6.01 0 01-3.592-1.172.936.936 0 00-.723-.175A7.048 7.048 0 001.2 14.941a6.141 6.141 0 00-.573 1.048c-.075.15-.05.324.025.474.2.349.449.698.673.997.35.474.723.898 1.147 1.297.35.35.749.674 1.148.998A11.3 11.3 0 0010.403 22a11.3 11.3 0 006.785-2.245c.4-.3.798-.648 1.147-.998.4-.399.799-.823 1.148-1.297.25-.324.474-.648.673-.997.125-.15.15-.325.075-.474z" fill="#C2C6D1"/></svg>